<svg xmlns="http://www.w3.org/2000/svg" viewBox="0 0 860 400" width="860" height="400">
<defs>
    <!-- Retro Neon Glow Filter -->
    <filter id="neon-glow" x="-20%" y="-20%" width="140%" height="140%">
        <feGaussianBlur stdDeviation="3" result="blur" />
        <feMerge>
            <feMergeNode in="blur"/>
            <feMergeNode in="SourceGraphic"/>
        </feMerge>
    </filter>

    <!-- Scanline Pattern -->
    <pattern id="scanline-pattern" width="100" height="4" patternUnits="userSpaceOnUse">
        <line x1="0" y1="0" x2="100" y2="0" stroke="#000000" stroke-width="1.2" opacity="0.3"/>
    </pattern>

    <!-- Canvas Vignette Shadow -->
    <radialGradient id="vignette" cx="50%" cy="50%" r="70%">
        <stop offset="60%" stop-color="#000000" stop-opacity="0"/>
        <stop offset="100%" stop-color="#000000" stop-opacity="0.6"/>
    </radialGradient>
</defs>

<style>
    .arcade-bg { fill: #070B12; stroke: #1E293B; stroke-width: 2; }
    
    /* Typography */
    .hud-label { font-family: 'Courier New', monospace; font-size: 13px; font-weight: bold; fill: #22D3EE; letter-spacing: 2px; }
    .hud-score { font-family: 'Courier New', monospace; font-size: 15px; font-weight: bold; fill: #10B981; }
    .hud-hi { font-family: 'Courier New', monospace; font-size: 15px; font-weight: bold; fill: #F59E0B; }
    .hud-user { font-family: 'Courier New', monospace; font-size: 15px; font-weight: bold; fill: #EC4899; }
    .start-text { font-family: 'Courier New', monospace; font-size: 14px; font-weight: bold; fill: #F43F5E; letter-spacing: 3px; animation: blink 1.2s infinite; }

    /* Game Entities */
    .ship-body { fill: #00F0FF; stroke: #38BDF8; stroke-width: 1.5; filter: url(#neon-glow); }
    .laser-beam { fill: #39FF14; filter: url(#neon-glow); }
    
    .alien-top { fill: #FF007F; filter: url(#neon-glow); }
    .alien-mid { fill: #00F0FF; filter: url(#neon-glow); }
    .alien-bot { fill: #39FF14; filter: url(#neon-glow); }

    /* CSS Animations */
    @keyframes blink { 0%, 49% { opacity: 1; } 50%, 100% { opacity: 0; } }

    /* Player Ship Movement */
    @keyframes player-traverse {
        0%, 100% { transform: translateX(0px); }
        25% { transform: translateX(180px); }
        50% { transform: translateX(40px); }
        75% { transform: translateX(-160px); }
    }

    /* Lasers Firing Upwards */
    @keyframes laser-shot-1 {
        0% { transform: translateY(0); opacity: 0; }
        5% { opacity: 1; }
        75% { transform: translateY(-220px); opacity: 1; }
        80%, 100% { transform: translateY(-220px); opacity: 0; }
    }

    @keyframes laser-shot-2 {
        0%, 40% { transform: translateY(0); opacity: 0; }
        45% { opacity: 1; }
        90% { transform: translateY(-220px); opacity: 1; }
        95%, 100% { transform: translateY(-220px); opacity: 0; }
    }

    /* Alien Swarm Movement */
    @keyframes swarm-movement {
        0%, 100% { transform: translateX(0px); }
        50% { transform: translateX(35px); }
    }

    /* Explosion Burst Flash */
    @keyframes hit-explosion {
        0%, 72%, 84%, 100% { opacity: 0; transform: scale(0.3); }
        76%, 80% { opacity: 1; transform: scale(1.3); }
    }

    .player-group { animation: player-traverse 7s ease-in-out infinite; }
    .laser-1 { animation: laser-shot-1 2.2s linear infinite; }
    .laser-2 { animation: laser-shot-2 2.2s linear infinite; }
    .swarm-group { animation: swarm-movement 4.5s ease-in-out infinite; }
    .hit-burst-1 { animation: hit-explosion 2.2s ease-out infinite; }
    .hit-burst-2 { animation: hit-explosion 2.2s ease-out infinite 1.1s; }
</style>

<!-- Game Canvas Base -->
<rect width="860" height="400" rx="12" class="arcade-bg"/>

<!-- Grid Line Accents -->
<g stroke="#1E293B" stroke-width="0.8" opacity="0.4">
    <line x1="40" y1="60" x2="820" y2="60"/>
    <line x1="40" y1="330" x2="820" y2="330"/>
</g>

<!-- Top Retro Arcade HUD Header -->
<g transform="translate(50, 40)">
    <!-- 1UP Score -->
    <text x="0" y="0" class="hud-label">1UP <tspan class="hud-user">DEVESH</tspan></text>
    <text x="0" y="16" class="hud-score">SCORE: 12850</text>

    <!-- High Score -->
    <text x="350" y="0" class="hud-label" text-anchor="middle">HIGH SCORE</text>
    <text x="350" y="16" class="hud-hi" text-anchor="middle">99990</text>

    <!-- Lives Count -->
    <text x="760" y="0" class="hud-label" text-anchor="end">LIVES</text>
    <g transform="translate(710, 8)">
        <!-- Pixel Hearts / Ships for lives -->
        <path d="M0 0 L4 -6 L8 0 L12 -6 L16 0 L8 8 Z" fill="#F43F5E"/>
        <path d="M22 0 L26 -6 L30 0 L34 -6 L38 0 L30 8 Z" fill="#F43F5E"/>
        <path d="M44 0 L48 -6 L52 0 L56 -6 L60 0 L52 8 Z" fill="#F43F5E"/>
    </g>
</g>

<!-- Alien Swarm Grid (Centered & Perfectly Aligned) -->
<g class="swarm-group" transform="translate(100, 95)">
    <!-- Row 1: UFO Magenta Aliens -->
    <g class="alien-top" transform="translate(0, 0)">
        <g transform="translate(20,0)"><rect width="26" height="16" rx="4"/><rect x="7" y="16" width="12" height="4"/></g>
        <g transform="translate(100,0)"><rect width="26" height="16" rx="4"/><rect x="7" y="16" width="12" height="4"/></g>
        <g transform="translate(180,0)"><rect width="26" height="16" rx="4"/><rect x="7" y="16" width="12" height="4"/></g>
        <g transform="translate(260,0)"><rect width="26" height="16" rx="4"/><rect x="7" y="16" width="12" height="4"/></g>
        <g transform="translate(340,0)"><rect width="26" height="16" rx="4"/><rect x="7" y="16" width="12" height="4"/></g>
        <g transform="translate(420,0)"><rect width="26" height="16" rx="4"/><rect x="7" y="16" width="12" height="4"/></g>
        <g transform="translate(500,0)"><rect width="26" height="16" rx="4"/><rect x="7" y="16" width="12" height="4"/></g>
        <g transform="translate(580,0)"><rect width="26" height="16" rx="4"/><rect x="7" y="16" width="12" height="4"/></g>
    </g>

    <!-- Row 2: Cyan Galaga Invaders -->
    <g class="alien-mid" transform="translate(0, 42)">
        <g transform="translate(20,0)"><rect width="26" height="16" rx="3"/><rect x="4" y="-4" width="4" height="4"/><rect x="18" y="-4" width="4" height="4"/></g>
        <g transform="translate(100,0)"><rect width="26" height="16" rx="3"/><rect x="4" y="-4" width="4" height="4"/><rect x="18" y="-4" width="4" height="4"/></g>
        <g transform="translate(180,0)"><rect width="26" height="16" rx="3"/><rect x="4" y="-4" width="4" height="4"/><rect x="18" y="-4" width="4" height="4"/></g>
        <g transform="translate(260,0)"><rect width="26" height="16" rx="3"/><rect x="4" y="-4" width="4" height="4"/><rect x="18" y="-4" width="4" height="4"/></g>
        <g transform="translate(340,0)"><rect width="26" height="16" rx="3"/><rect x="4" y="-4" width="4" height="4"/><rect x="18" y="-4" width="4" height="4"/></g>
        <g transform="translate(420,0)"><rect width="26" height="16" rx="3"/><rect x="4" y="-4" width="4" height="4"/><rect x="18" y="-4" width="4" height="4"/></g>
        <g transform="translate(500,0)"><rect width="26" height="16" rx="3"/><rect x="4" y="-4" width="4" height="4"/><rect x="18" y="-4" width="4" height="4"/></g>
        <g transform="translate(580,0)"><rect width="26" height="16" rx="3"/><rect x="4" y="-4" width="4" height="4"/><rect x="18" y="-4" width="4" height="4"/></g>
    </g>

    <!-- Row 3: Neon Green Classic Invaders -->
    <g class="alien-bot" transform="translate(0, 84)">
        <g transform="translate(20,0)"><rect width="28" height="16" rx="2"/><rect x="-3" y="4" width="4" height="8"/><rect x="27" y="4" width="4" height="8"/></g>
        <g transform="translate(100,0)"><rect width="28" height="16" rx="2"/><rect x="-3" y="4" width="4" height="8"/><rect x="27" y="4" width="4" height="8"/></g>
        <g transform="translate(180,0)"><rect width="28" height="16" rx="2"/><rect x="-3" y="4" width="4" height="8"/><rect x="27" y="4" width="4" height="8"/></g>
        <g transform="translate(260,0)"><rect width="28" height="16" rx="2"/><rect x="-3" y="4" width="4" height="8"/><rect x="27" y="4" width="4" height="8"/></g>
        <g transform="translate(340,0)"><rect width="28" height="16" rx="2"/><rect x="-3" y="4" width="4" height="8"/><rect x="27" y="4" width="4" height="8"/></g>
        <g transform="translate(420,0)"><rect width="28" height="16" rx="2"/><rect x="-3" y="4" width="4" height="8"/><rect x="27" y="4" width="4" height="8"/></g>
        <g transform="translate(500,0)"><rect width="28" height="16" rx="2"/><rect x="-3" y="4" width="4" height="8"/><rect x="27" y="4" width="4" height="8"/></g>
        <g transform="translate(580,0)"><rect width="28" height="16" rx="2"/><rect x="-3" y="4" width="4" height="8"/><rect x="27" y="4" width="4" height="8"/></g>
    </g>

    <!-- Explosion Burst Effects -->
    <g class="hit-burst-1" transform="translate(273, 42)">
        <polygon points="0,-12 4,-4 12,-4 6,2 8,10 0,5 -8,10 -6,2 -12,-4 -4,-4" fill="#FFE600"/>
        <circle cx="0" cy="0" r="14" fill="#FF007F" opacity="0.6"/>
    </g>
    <g class="hit-burst-2" transform="translate(433, 84)">
        <polygon points="0,-12 4,-4 12,-4 6,2 8,10 0,5 -8,10 -6,2 -12,-4 -4,-4" fill="#00F0FF"/>
        <circle cx="0" cy="0" r="14" fill="#39FF14" opacity="0.6"/>
    </g>
</g>

<!-- Animated Player Starship Base -->
<g transform="translate(430, 310)">
    <g class="player-group">
        <!-- Upward Firing Dual Lasers -->
        <rect x="-6" y="-18" width="3" height="16" class="laser-beam laser-1"/>
        <rect x="3" y="-18" width="3" height="16" class="laser-beam laser-2"/>

        <!-- Player Fighter Craft -->
        <path d="M0 -22 L8 -6 L20 4 L24 12 L-24 12 L-20 4 L-8 -6 Z" class="ship-body"/>
        <rect x="-3" y="-26" width="6" height="8" fill="#FFFFFF" filter="url(#neon-glow)"/>
        <!-- Thruster Flame -->
        <polygon points="-6,12 0,22 6,12" fill="#FF007F" filter="url(#neon-glow)"/>
    </g>
</g>

<!-- Bottom Arcade Footer Banner -->
<g transform="translate(430, 362)">
    <text x="0" y="0" text-anchor="middle" class="start-text">★ INSERT COIN · 1P PRESS START ★</text>
</g>

<!-- CRT Scanlines Overlay -->
<rect width="860" height="400" rx="12" fill="url(#scanline-pattern)" pointer-events="none"/>

<!-- Vignette Shadow Frame -->
<rect width="860" height="400" rx="12" fill="url(#vignette)" pointer-events="none"/>

</svg>