<svg xmlns="http://www.w3.org/2000/svg" width="495" height="195" viewBox="0 0 495 195" fill="none">
  <style>
    .header { font: 700 18px 'Segoe UI', Ubuntu, Sans-Serif; fill: #22D3EE; }
    .lang-name { font: 600 13px 'Segoe UI', Ubuntu, Sans-Serif; fill: #F8FAFC; }
    .lang-pct { font: 600 13px 'Segoe UI', Ubuntu, Sans-Serif; fill: #94A3B8; }
  </style>
  <rect width="495" height="195" rx="8" fill="#0A101F" stroke="#1E293B" stroke-width="1.5"/>

  <!-- Title -->
  <text x="25" y="35" class="header">Most Used Languages</text>

  <!-- Multi-Color Progress Bar -->
  <g transform="translate(25, 55)">
    <mask id="bar-mask">
      <rect width="445" height="10" rx="5" fill="#fff"/>
    </mask>
    <g mask="url(#bar-mask)">
      <!-- Python: 45% (200px) -->
      <rect x="0" y="0" width="200" height="10" fill="#3572A5"/>
      <!-- TypeScript: 28% (125px) -->
      <rect x="200" y="0" width="125" height="10" fill="#3178C6"/>
      <!-- JavaScript: 15% (67px) -->
      <rect x="325" y="0" width="67" height="10" fill="#F1E05A"/>
      <!-- C++: 8% (35px) -->
      <rect x="392" y="0" width="35" height="10" fill="#F34B7D"/>
      <!-- HTML/CSS: 4% (18px) -->
      <rect x="427" y="0" width="18" height="10" fill="#E34C26"/>
    </g>
  </g>

  <!-- Language List Grid (2 columns) -->
  <g transform="translate(25, 90)">
    <!-- Column 1 -->
    <g transform="translate(0, 0)">
      <circle cx="6" cy="6" r="5" fill="#3572A5"/>
      <text x="20" y="10" class="lang-name">Python <tspan class="lang-pct">45.0%</tspan></text>
    </g>
    <g transform="translate(0, 30)">
      <circle cx="6" cy="6" r="5" fill="#3178C6"/>
      <text x="20" y="10" class="lang-name">TypeScript <tspan class="lang-pct">28.1%</tspan></text>
    </g>
    <g transform="translate(0, 60)">
      <circle cx="6" cy="6" r="5" fill="#F1E05A"/>
      <text x="20" y="10" class="lang-name">JavaScript <tspan class="lang-pct">15.0%</tspan></text>
    </g>

    <!-- Column 2 -->
    <g transform="translate(220, 0)">
      <circle cx="6" cy="6" r="5" fill="#F34B7D"/>
      <text x="20" y="10" class="lang-name">C++ <tspan class="lang-pct">7.9%</tspan></text>
    </g>
    <g transform="translate(220, 30)">
      <circle cx="6" cy="6" r="5" fill="#E34C26"/>
      <text x="20" y="10" class="lang-name">HTML/CSS <tspan class="lang-pct">4.0%</tspan></text>
    </g>
  </g>
</svg>